<mxfile host="app.diagrams.net" agent="Mozilla/5.0 (Windows NT 10.0; Win64; x64) AppleWebKit/537.36 (KHTML, like Gecko) Chrome/136.0.0.0 Safari/537.36" version="26.2.12">
  <diagram name="Page-1" id="aC0QLlncvfHD74hKhl9t">
    <mxGraphModel dx="1228" dy="661" grid="1" gridSize="10" guides="1" tooltips="1" connect="1" arrows="1" fold="1" page="1" pageScale="1" pageWidth="850" pageHeight="1100" math="0" shadow="0">
      <root>
        <mxCell id="0" />
        <mxCell id="1" parent="0" />
        <mxCell id="r-FI9sSgYMsOw1SAUbAI-37" style="edgeStyle=orthogonalEdgeStyle;rounded=0;orthogonalLoop=1;jettySize=auto;html=1;entryX=0;entryY=0.5;entryDx=0;entryDy=0;" edge="1" parent="1" source="r-FI9sSgYMsOw1SAUbAI-35" target="r-FI9sSgYMsOw1SAUbAI-9">
          <mxGeometry relative="1" as="geometry" />
        </mxCell>
        <mxCell id="r-FI9sSgYMsOw1SAUbAI-35" value="" style="rounded=1;whiteSpace=wrap;html=1;fillStyle=auto;dashed=1;" vertex="1" parent="1">
          <mxGeometry x="275" y="205" width="300" height="110" as="geometry" />
        </mxCell>
        <mxCell id="r-FI9sSgYMsOw1SAUbAI-36" style="edgeStyle=orthogonalEdgeStyle;rounded=0;orthogonalLoop=1;jettySize=auto;html=1;entryX=0;entryY=0.5;entryDx=0;entryDy=0;" edge="1" parent="1" source="r-FI9sSgYMsOw1SAUbAI-6" target="r-FI9sSgYMsOw1SAUbAI-35">
          <mxGeometry relative="1" as="geometry" />
        </mxCell>
        <mxCell id="r-FI9sSgYMsOw1SAUbAI-6" value="User Query API" style="rounded=1;whiteSpace=wrap;html=1;" vertex="1" parent="1">
          <mxGeometry x="120" y="230" width="100" height="60" as="geometry" />
        </mxCell>
        <mxCell id="r-FI9sSgYMsOw1SAUbAI-28" style="edgeStyle=orthogonalEdgeStyle;rounded=0;orthogonalLoop=1;jettySize=auto;html=1;entryX=0;entryY=0.5;entryDx=0;entryDy=0;" edge="1" parent="1" source="r-FI9sSgYMsOw1SAUbAI-7" target="r-FI9sSgYMsOw1SAUbAI-8">
          <mxGeometry relative="1" as="geometry" />
        </mxCell>
        <mxCell id="r-FI9sSgYMsOw1SAUbAI-7" value="Embedding" style="rounded=1;whiteSpace=wrap;html=1;" vertex="1" parent="1">
          <mxGeometry x="290" y="230" width="100" height="60" as="geometry" />
        </mxCell>
        <mxCell id="r-FI9sSgYMsOw1SAUbAI-8" value="Vector Store Search" style="rounded=1;whiteSpace=wrap;html=1;" vertex="1" parent="1">
          <mxGeometry x="460" y="230" width="100" height="60" as="geometry" />
        </mxCell>
        <mxCell id="r-FI9sSgYMsOw1SAUbAI-30" style="edgeStyle=orthogonalEdgeStyle;rounded=0;orthogonalLoop=1;jettySize=auto;html=1;entryX=0;entryY=0.5;entryDx=0;entryDy=0;" edge="1" parent="1" source="r-FI9sSgYMsOw1SAUbAI-9" target="r-FI9sSgYMsOw1SAUbAI-10">
          <mxGeometry relative="1" as="geometry" />
        </mxCell>
        <mxCell id="r-FI9sSgYMsOw1SAUbAI-9" value="Prompt Construction" style="rounded=1;whiteSpace=wrap;html=1;" vertex="1" parent="1">
          <mxGeometry x="630" y="230" width="100" height="60" as="geometry" />
        </mxCell>
        <mxCell id="r-FI9sSgYMsOw1SAUbAI-38" style="edgeStyle=orthogonalEdgeStyle;rounded=0;orthogonalLoop=1;jettySize=auto;html=1;entryX=1;entryY=0.5;entryDx=0;entryDy=0;" edge="1" parent="1" source="r-FI9sSgYMsOw1SAUbAI-10" target="r-FI9sSgYMsOw1SAUbAI-12">
          <mxGeometry relative="1" as="geometry">
            <Array as="points">
              <mxPoint x="850" y="370" />
            </Array>
          </mxGeometry>
        </mxCell>
        <mxCell id="r-FI9sSgYMsOw1SAUbAI-42" value="event-stream" style="edgeLabel;html=1;align=center;verticalAlign=middle;resizable=0;points=[];" vertex="1" connectable="0" parent="r-FI9sSgYMsOw1SAUbAI-38">
          <mxGeometry x="0.1825" y="1" relative="1" as="geometry">
            <mxPoint y="-1" as="offset" />
          </mxGeometry>
        </mxCell>
        <mxCell id="r-FI9sSgYMsOw1SAUbAI-10" value="LLM" style="rounded=1;whiteSpace=wrap;html=1;" vertex="1" parent="1">
          <mxGeometry x="800" y="230" width="100" height="60" as="geometry" />
        </mxCell>
        <mxCell id="r-FI9sSgYMsOw1SAUbAI-20" style="edgeStyle=orthogonalEdgeStyle;rounded=0;orthogonalLoop=1;jettySize=auto;html=1;entryX=0;entryY=0.5;entryDx=0;entryDy=0;" edge="1" parent="1" source="r-FI9sSgYMsOw1SAUbAI-19" target="r-FI9sSgYMsOw1SAUbAI-6">
          <mxGeometry relative="1" as="geometry" />
        </mxCell>
        <mxCell id="r-FI9sSgYMsOw1SAUbAI-19" value="" style="sketch=0;outlineConnect=0;fontColor=#232F3E;gradientColor=none;fillColor=#232F3D;strokeColor=none;dashed=0;verticalLabelPosition=bottom;verticalAlign=top;align=center;html=1;fontSize=12;fontStyle=0;aspect=fixed;pointerEvents=1;shape=mxgraph.aws4.user;" vertex="1" parent="1">
          <mxGeometry x="30" y="245" width="30" height="30" as="geometry" />
        </mxCell>
        <mxCell id="r-FI9sSgYMsOw1SAUbAI-39" style="edgeStyle=orthogonalEdgeStyle;rounded=0;orthogonalLoop=1;jettySize=auto;html=1;" edge="1" parent="1" source="r-FI9sSgYMsOw1SAUbAI-12" target="r-FI9sSgYMsOw1SAUbAI-19">
          <mxGeometry relative="1" as="geometry" />
        </mxCell>
        <mxCell id="r-FI9sSgYMsOw1SAUbAI-40" value="event-stream" style="edgeLabel;html=1;align=center;verticalAlign=middle;resizable=0;points=[];" vertex="1" connectable="0" parent="r-FI9sSgYMsOw1SAUbAI-39">
          <mxGeometry x="-0.2187" y="3" relative="1" as="geometry">
            <mxPoint as="offset" />
          </mxGeometry>
        </mxCell>
        <mxCell id="r-FI9sSgYMsOw1SAUbAI-12" value="Format Response" style="rounded=1;whiteSpace=wrap;html=1;" vertex="1" parent="1">
          <mxGeometry x="390" y="340" width="100" height="60" as="geometry" />
        </mxCell>
        <mxCell id="r-FI9sSgYMsOw1SAUbAI-43" value="Context Retrieval" style="text;html=1;align=center;verticalAlign=middle;resizable=0;points=[];autosize=1;strokeColor=none;fillColor=none;" vertex="1" parent="1">
          <mxGeometry x="365" y="180" width="120" height="30" as="geometry" />
        </mxCell>
      </root>
    </mxGraphModel>
  </diagram>
</mxfile>
